<svg width="424" height="424" viewBox="0 0 424 424" fill="none" xmlns="http://www.w3.org/2000/svg">
<mask id="mask0_70_1454" style="mask-type:alpha" maskUnits="userSpaceOnUse" x="0" y="0" width="424" height="424">
<circle opacity="0.5" cx="212" cy="212" r="212" fill="#E4EBF1"/>
</mask>
<g mask="url(#mask0_70_1454)">
<g filter="url(#filter0_f_70_1454)">
<circle cx="335.089" cy="436.611" r="219.175" fill="#800BF5"/>
</g>
<path d="M186 364.3C186 359.5 183.6 357.1 178.8 357.1H165.6C160.8 357.1 158.4 359.5 158.4 364.3V402.7C158.4 407.5 160.8 409.9 165.6 409.9H178.8C183.6 409.9 186 407.5 186 402.7V364.3ZM207.6 402.7C207.6 411.1 205.68 417.22 201.84 421.06C198.08 424.82 192 426.7 183.6 426.7H160.8C152.4 426.7 146.28 424.82 142.44 421.06C138.68 417.22 136.8 411.1 136.8 402.7V364.3C136.8 355.9 138.68 349.82 142.44 346.06C146.28 342.22 152.4 340.3 160.8 340.3H183.6C192 340.3 198.08 342.22 201.84 346.06C205.68 349.82 207.6 355.9 207.6 364.3V402.7ZM279.591 367.9C279.591 374.7 276.711 380.58 270.951 385.54C269.191 387.06 267.271 388.58 265.191 390.1L239.391 408.7H279.591V425.5H214.791V402.7L257.991 371.5V365.5C257.991 360.7 255.591 358.3 250.791 358.3H217.191V341.5H255.591C263.991 341.5 270.071 343.42 273.831 347.26C277.671 351.02 279.591 357.1 279.591 365.5V367.9Z" fill="#14063D"/>
</g>
<path d="M9.82 169.48H3.36V182H1.7V168H11.48V182H9.82V169.48ZM14.1636 177C14.1636 175.307 14.5369 174.013 15.2836 173.12C16.0436 172.213 17.1303 171.76 18.5436 171.76C19.2903 171.76 19.9369 171.887 20.4836 172.14C21.0436 172.38 21.5036 172.733 21.8636 173.2C22.2236 173.653 22.4903 174.207 22.6636 174.86C22.8369 175.5 22.9236 176.213 22.9236 177C22.9236 178.693 22.5436 179.993 21.7836 180.9C21.0369 181.793 19.9569 182.24 18.5436 182.24C17.7969 182.24 17.1436 182.12 16.5836 181.88C16.0369 181.627 15.5836 181.273 15.2236 180.82C14.8636 180.353 14.5969 179.8 14.4236 179.16C14.2503 178.507 14.1636 177.787 14.1636 177ZM15.8236 177C15.8236 177.507 15.8703 177.993 15.9636 178.46C16.0703 178.927 16.2303 179.333 16.4436 179.68C16.6569 180.027 16.9369 180.307 17.2836 180.52C17.6303 180.733 18.0503 180.84 18.5436 180.84C20.3569 180.853 21.2636 179.573 21.2636 177C21.2636 176.48 21.2103 175.987 21.1036 175.52C21.0103 175.053 20.8569 174.647 20.6436 174.3C20.4303 173.953 20.1503 173.68 19.8036 173.48C19.4569 173.267 19.0369 173.16 18.5436 173.16C16.7303 173.147 15.8236 174.427 15.8236 177ZM34.1691 184.54H33.0891L32.7891 182H25.2691L24.9691 184.54H23.8891V180.6H25.0691C25.1757 180.453 25.3157 180.193 25.4891 179.82C25.6624 179.433 25.8291 178.9 25.9891 178.22C26.1624 177.527 26.3091 176.673 26.4291 175.66C26.5624 174.633 26.6424 173.413 26.6691 172H32.7091V180.6H34.1691V184.54ZM31.1091 180.6V173.4H28.1091C28.0824 173.96 28.0357 174.573 27.9691 175.24C27.9024 175.893 27.8091 176.553 27.6891 177.22C27.5824 177.873 27.4424 178.493 27.2691 179.08C27.0957 179.667 26.8957 180.173 26.6691 180.6H31.1091ZM38.6694 177.5H37.7494V182H36.1494V172H37.7494V176.52L38.6094 176.24L41.8094 172H43.5494L40.4494 176.02L39.6094 176.68L40.6494 177.48L43.9894 182H42.0094L38.6694 177.5ZM51.0802 173.4H48.1802C48.1402 173.96 48.1002 174.567 48.0602 175.22C48.0202 175.86 47.9602 176.507 47.8802 177.16C47.8002 177.8 47.6935 178.42 47.5602 179.02C47.4268 179.607 47.2535 180.127 47.0402 180.58C46.8402 181.033 46.5868 181.4 46.2802 181.68C45.9868 181.947 45.6335 182.08 45.2202 182.08C44.9668 182.08 44.7468 182.067 44.5602 182.04C44.3735 182.013 44.2068 181.967 44.0602 181.9L44.3002 180.56C44.4602 180.613 44.6335 180.64 44.8202 180.64C45.0868 180.64 45.3268 180.527 45.5402 180.3C45.7535 180.073 45.9402 179.647 46.1002 179.02C46.2602 178.38 46.3935 177.5 46.5002 176.38C46.6068 175.26 46.6802 173.8 46.7202 172H52.6802V182H51.0802V173.4ZM63.5188 182.24C62.7988 182.24 62.1788 182.133 61.6588 181.92C61.1521 181.693 60.7321 181.38 60.3988 180.98C60.0788 180.567 59.8321 180.073 59.6588 179.5C59.4988 178.913 59.3988 178.273 59.3587 177.58H57.3588V182H55.7588V172H57.3588V176.18H59.3788C59.4854 174.753 59.8721 173.66 60.5388 172.9C61.2188 172.14 62.2254 171.76 63.5588 171.76C64.2921 171.76 64.9121 171.887 65.4188 172.14C65.9388 172.38 66.3588 172.733 66.6788 173.2C67.0121 173.653 67.2521 174.207 67.3988 174.86C67.5454 175.5 67.6188 176.213 67.6188 177C67.6188 178.693 67.2788 179.993 66.5988 180.9C65.9321 181.793 64.9054 182.24 63.5188 182.24ZM60.9388 177C60.9388 177.52 60.9788 178.013 61.0588 178.48C61.1388 178.947 61.2788 179.36 61.4788 179.72C61.6788 180.067 61.9454 180.34 62.2788 180.54C62.6254 180.74 63.0521 180.84 63.5588 180.84C64.4121 180.84 65.0254 180.533 65.3988 179.92C65.7721 179.293 65.9588 178.32 65.9588 177C65.9588 176.48 65.9188 175.987 65.8388 175.52C65.7721 175.053 65.6454 174.647 65.4588 174.3C65.2721 173.94 65.0254 173.66 64.7188 173.46C64.4121 173.26 64.0188 173.16 63.5388 173.16C62.6188 173.16 61.9521 173.473 61.5388 174.1C61.1388 174.713 60.9388 175.68 60.9388 177ZM71.1738 172V174.72C71.1738 175.08 71.1938 175.407 71.2337 175.7C71.2738 175.98 71.3538 176.227 71.4738 176.44C71.5938 176.64 71.7671 176.8 71.9938 176.92C72.2204 177.027 72.5204 177.08 72.8938 177.08C73.4938 177.08 73.9871 177.013 74.3738 176.88C74.7604 176.747 75.0538 176.6 75.2538 176.44V172H76.8538V182H75.2538V177.8C75.0404 177.933 74.7204 178.08 74.2938 178.24C73.8804 178.4 73.3071 178.48 72.5738 178.48C72.0804 178.48 71.6471 178.427 71.2738 178.32C70.9004 178.213 70.5871 178.027 70.3338 177.76C70.0804 177.493 69.8871 177.14 69.7538 176.7C69.6338 176.26 69.5738 175.707 69.5738 175.04V172H71.1738ZM79.7784 172.74C80.2851 172.433 80.8718 172.207 81.5384 172.06C82.2184 171.913 82.9251 171.84 83.6584 171.84C84.3518 171.84 84.9051 171.933 85.3184 172.12C85.7451 172.307 86.0651 172.553 86.2784 172.86C86.5051 173.153 86.6518 173.48 86.7184 173.84C86.7984 174.2 86.8384 174.56 86.8384 174.92C86.8384 175.72 86.8184 176.5 86.7784 177.26C86.7384 178.02 86.7184 178.74 86.7184 179.42C86.7184 179.913 86.7384 180.38 86.7784 180.82C86.8184 181.26 86.8918 181.667 86.9984 182.04H85.8184L85.3984 180.64H85.2984C85.1784 180.827 85.0251 181.013 84.8384 181.2C84.6651 181.373 84.4518 181.533 84.1984 181.68C83.9451 181.813 83.6518 181.927 83.3184 182.02C82.9851 182.113 82.6051 182.16 82.1784 182.16C81.7518 182.16 81.3518 182.093 80.9784 181.96C80.6184 181.827 80.3051 181.64 80.0384 181.4C79.7718 181.147 79.5584 180.847 79.3984 180.5C79.2518 180.153 79.1784 179.76 79.1784 179.32C79.1784 178.733 79.2984 178.247 79.5384 177.86C79.7784 177.46 80.1118 177.147 80.5384 176.92C80.9784 176.68 81.4984 176.513 82.0984 176.42C82.7118 176.313 83.3851 176.26 84.1184 176.26C84.3051 176.26 84.4851 176.26 84.6584 176.26C84.8451 176.26 85.0318 176.273 85.2184 176.3C85.2584 175.9 85.2784 175.54 85.2784 175.22C85.2784 174.487 85.1318 173.973 84.8384 173.68C84.5451 173.387 84.0118 173.24 83.2384 173.24C83.0118 173.24 82.7651 173.26 82.4984 173.3C82.2451 173.327 81.9784 173.373 81.6984 173.44C81.4318 173.493 81.1718 173.567 80.9184 173.66C80.6784 173.74 80.4651 173.833 80.2784 173.94L79.7784 172.74ZM82.6184 180.76C82.9918 180.76 83.3251 180.713 83.6184 180.62C83.9118 180.513 84.1651 180.387 84.3784 180.24C84.5918 180.08 84.7651 179.907 84.8984 179.72C85.0451 179.533 85.1518 179.353 85.2184 179.18V177.52C85.0318 177.507 84.8384 177.5 84.6384 177.5C84.4518 177.487 84.2651 177.48 84.0784 177.48C83.6651 177.48 83.2584 177.507 82.8584 177.56C82.4718 177.6 82.1251 177.687 81.8184 177.82C81.5251 177.94 81.2851 178.113 81.0984 178.34C80.9251 178.553 80.8384 178.827 80.8384 179.16C80.8384 179.627 81.0051 180.013 81.3384 180.32C81.6718 180.613 82.0984 180.76 82.6184 180.76ZM96.1003 176.08L96.1603 174.84H96.1003L95.2803 176.12L90.7803 182H89.8603V172H91.4603V178.1L91.4003 179.28H91.4803L92.2603 178.04L96.7603 172H97.7003V182H96.1003V176.08ZM92.1603 167.96C92.2936 168.573 92.5203 169 92.8403 169.24C93.1736 169.48 93.5536 169.6 93.9803 169.6C94.407 169.6 94.787 169.473 95.1203 169.22C95.4536 168.967 95.6803 168.553 95.8003 167.98L97.0003 168.36C96.8803 169.133 96.5336 169.727 95.9603 170.14C95.4003 170.553 94.727 170.76 93.9403 170.76C93.5803 170.76 93.2203 170.713 92.8603 170.62C92.5136 170.527 92.2003 170.387 91.9203 170.2C91.6403 170.013 91.4003 169.773 91.2003 169.48C91.0003 169.187 90.867 168.84 90.8003 168.44L92.1603 167.96ZM107.138 173.4H104.018V182H102.418V173.4H99.2983V172H107.138V173.4ZM115.715 181.2C115.315 181.52 114.808 181.773 114.195 181.96C113.595 182.147 112.955 182.24 112.275 182.24C111.515 182.24 110.855 182.12 110.295 181.88C109.735 181.627 109.275 181.273 108.915 180.82C108.555 180.353 108.288 179.8 108.115 179.16C107.942 178.52 107.855 177.8 107.855 177C107.855 175.293 108.235 173.993 108.995 173.1C109.755 172.207 110.842 171.76 112.255 171.76C112.708 171.76 113.162 171.813 113.615 171.92C114.068 172.013 114.475 172.2 114.835 172.48C115.195 172.76 115.488 173.16 115.715 173.68C115.942 174.187 116.055 174.86 116.055 175.7C116.055 176.14 116.015 176.627 115.935 177.16H109.515C109.515 177.747 109.575 178.267 109.695 178.72C109.815 179.173 110.002 179.56 110.255 179.88C110.508 180.187 110.835 180.427 111.235 180.6C111.648 180.76 112.148 180.84 112.735 180.84C113.188 180.84 113.642 180.76 114.095 180.6C114.548 180.44 114.888 180.253 115.115 180.04L115.715 181.2ZM112.275 173.16C111.488 173.16 110.855 173.367 110.375 173.78C109.908 174.193 109.628 174.9 109.535 175.9H114.495C114.495 174.887 114.302 174.18 113.915 173.78C113.528 173.367 112.982 173.16 112.275 173.16ZM130.723 181.34C130.323 181.633 129.85 181.853 129.303 182C128.757 182.16 128.183 182.24 127.583 182.24C126.81 182.24 126.157 182.12 125.623 181.88C125.09 181.627 124.65 181.273 124.303 180.82C123.97 180.353 123.723 179.8 123.563 179.16C123.417 178.507 123.343 177.787 123.343 177C123.343 175.307 123.717 174.013 124.463 173.12C125.21 172.213 126.283 171.76 127.683 171.76C128.323 171.76 128.863 171.813 129.303 171.92C129.757 172.013 130.163 172.153 130.523 172.34L130.063 173.72C129.757 173.547 129.417 173.413 129.043 173.32C128.67 173.213 128.27 173.16 127.843 173.16C125.95 173.16 125.003 174.44 125.003 177C125.003 177.507 125.05 177.993 125.143 178.46C125.25 178.913 125.417 179.32 125.643 179.68C125.883 180.027 126.19 180.307 126.563 180.52C126.95 180.733 127.423 180.84 127.983 180.84C128.463 180.84 128.89 180.767 129.263 180.62C129.65 180.473 129.963 180.307 130.203 180.12L130.723 181.34ZM141.187 176.06L141.307 174.16H141.207L140.487 175.7L138.067 179.62H137.507L134.987 175.7L134.327 174.16H134.247L134.407 176.04V182H132.927V172H134.507L137.307 176.48L137.887 177.64H137.927L138.527 176.44L141.147 172H142.747V182H141.187V176.06ZM145.657 172.74C146.164 172.433 146.751 172.207 147.417 172.06C148.097 171.913 148.804 171.84 149.537 171.84C150.231 171.84 150.784 171.933 151.197 172.12C151.624 172.307 151.944 172.553 152.157 172.86C152.384 173.153 152.531 173.48 152.597 173.84C152.677 174.2 152.717 174.56 152.717 174.92C152.717 175.72 152.697 176.5 152.657 177.26C152.617 178.02 152.597 178.74 152.597 179.42C152.597 179.913 152.617 180.38 152.657 180.82C152.697 181.26 152.771 181.667 152.877 182.04H151.697L151.277 180.64H151.177C151.057 180.827 150.904 181.013 150.717 181.2C150.544 181.373 150.331 181.533 150.077 181.68C149.824 181.813 149.531 181.927 149.197 182.02C148.864 182.113 148.484 182.16 148.057 182.16C147.631 182.16 147.231 182.093 146.857 181.96C146.497 181.827 146.184 181.64 145.917 181.4C145.651 181.147 145.437 180.847 145.277 180.5C145.131 180.153 145.057 179.76 145.057 179.32C145.057 178.733 145.177 178.247 145.417 177.86C145.657 177.46 145.991 177.147 146.417 176.92C146.857 176.68 147.377 176.513 147.977 176.42C148.591 176.313 149.264 176.26 149.997 176.26C150.184 176.26 150.364 176.26 150.537 176.26C150.724 176.26 150.911 176.273 151.097 176.3C151.137 175.9 151.157 175.54 151.157 175.22C151.157 174.487 151.011 173.973 150.717 173.68C150.424 173.387 149.891 173.24 149.117 173.24C148.891 173.24 148.644 173.26 148.377 173.3C148.124 173.327 147.857 173.373 147.577 173.44C147.311 173.493 147.051 173.567 146.797 173.66C146.557 173.74 146.344 173.833 146.157 173.94L145.657 172.74ZM148.497 180.76C148.871 180.76 149.204 180.713 149.497 180.62C149.791 180.513 150.044 180.387 150.257 180.24C150.471 180.08 150.644 179.907 150.777 179.72C150.924 179.533 151.031 179.353 151.097 179.18V177.52C150.911 177.507 150.717 177.5 150.517 177.5C150.331 177.487 150.144 177.48 149.957 177.48C149.544 177.48 149.137 177.507 148.737 177.56C148.351 177.6 148.004 177.687 147.697 177.82C147.404 177.94 147.164 178.113 146.977 178.34C146.804 178.553 146.717 178.827 146.717 179.16C146.717 179.627 146.884 180.013 147.217 180.32C147.551 180.613 147.977 180.76 148.497 180.76ZM155.739 172H156.839L157.139 173.2H157.219C157.526 172.733 157.919 172.38 158.399 172.14C158.893 171.887 159.453 171.76 160.079 171.76C161.413 171.76 162.406 172.153 163.059 172.94C163.713 173.727 164.039 175.013 164.039 176.8C164.039 177.64 163.926 178.4 163.699 179.08C163.486 179.747 163.179 180.313 162.779 180.78C162.379 181.247 161.893 181.607 161.319 181.86C160.759 182.113 160.133 182.24 159.439 182.24C158.946 182.24 158.553 182.207 158.259 182.14C157.979 182.087 157.673 181.987 157.339 181.84V186H155.739V172ZM159.779 173.16C159.099 173.16 158.559 173.34 158.159 173.7C157.773 174.047 157.499 174.58 157.339 175.3V180.26C157.579 180.447 157.853 180.593 158.159 180.7C158.466 180.793 158.873 180.84 159.379 180.84C160.299 180.84 161.026 180.5 161.559 179.82C162.106 179.127 162.379 178.113 162.379 176.78C162.379 176.233 162.333 175.74 162.239 175.3C162.146 174.847 161.993 174.467 161.779 174.16C161.579 173.84 161.313 173.593 160.979 173.42C160.659 173.247 160.259 173.16 159.779 173.16ZM172.607 173.4H169.487V182H167.887V173.4H164.767V172H172.607V173.4ZM178.384 182.08C178.157 182.16 177.917 182.207 177.664 182.22C177.424 182.233 177.204 182.24 177.004 182.24C175.79 182.24 174.857 181.813 174.204 180.96C173.55 180.107 173.224 178.787 173.224 177C173.224 175.293 173.584 174.007 174.304 173.14C175.024 172.273 176.064 171.84 177.424 171.84C177.797 171.84 178.117 171.867 178.384 171.92V168H179.904V171.94C180.144 171.9 180.357 171.873 180.544 171.86C180.73 171.847 180.91 171.84 181.084 171.84C182.404 171.84 183.397 172.227 184.064 173C184.73 173.76 185.064 175.027 185.064 176.8C185.064 177.64 184.97 178.4 184.784 179.08C184.61 179.747 184.35 180.313 184.004 180.78C183.657 181.247 183.23 181.607 182.724 181.86C182.23 182.113 181.657 182.24 181.004 182.24C180.884 182.24 180.704 182.227 180.464 182.2C180.237 182.187 180.05 182.153 179.904 182.1V186H178.384V182.08ZM180.784 173.16C180.624 173.16 180.477 173.167 180.344 173.18C180.224 173.18 180.07 173.207 179.884 173.26V180.86C180.017 180.887 180.164 180.907 180.324 180.92C180.497 180.92 180.684 180.92 180.884 180.92C181.737 180.92 182.377 180.567 182.804 179.86C183.244 179.153 183.464 178.133 183.464 176.8C183.464 175.667 183.264 174.78 182.864 174.14C182.477 173.487 181.784 173.16 180.784 173.16ZM177.404 180.92C177.564 180.92 177.724 180.913 177.884 180.9C178.044 180.887 178.217 180.86 178.404 180.82V173.24C178.244 173.213 178.09 173.193 177.944 173.18C177.81 173.167 177.644 173.16 177.444 173.16C176.617 173.16 175.97 173.473 175.504 174.1C175.05 174.713 174.824 175.68 174.824 177C174.824 177.56 174.87 178.08 174.964 178.56C175.07 179.04 175.23 179.46 175.444 179.82C175.657 180.167 175.924 180.44 176.244 180.64C176.577 180.827 176.964 180.92 177.404 180.92ZM186.918 177C186.918 175.307 187.291 174.013 188.038 173.12C188.798 172.213 189.884 171.76 191.298 171.76C192.044 171.76 192.691 171.887 193.238 172.14C193.798 172.38 194.258 172.733 194.618 173.2C194.978 173.653 195.244 174.207 195.418 174.86C195.591 175.5 195.678 176.213 195.678 177C195.678 178.693 195.298 179.993 194.538 180.9C193.791 181.793 192.711 182.24 191.298 182.24C190.551 182.24 189.898 182.12 189.338 181.88C188.791 181.627 188.338 181.273 187.978 180.82C187.618 180.353 187.351 179.8 187.178 179.16C187.004 178.507 186.918 177.787 186.918 177ZM188.577 177C188.577 177.507 188.624 177.993 188.718 178.46C188.824 178.927 188.984 179.333 189.198 179.68C189.411 180.027 189.691 180.307 190.038 180.52C190.384 180.733 190.804 180.84 191.298 180.84C193.111 180.853 194.018 179.573 194.018 177C194.018 176.48 193.964 175.987 193.858 175.52C193.764 175.053 193.611 174.647 193.398 174.3C193.184 173.953 192.904 173.68 192.558 173.48C192.211 173.267 191.791 173.16 191.298 173.16C189.484 173.147 188.577 174.427 188.577 177ZM204.32 177.58H199.8V182H198.2V172H199.8V176.18H204.32V172H205.92V182H204.32V177.58ZM210.601 180.6C211.094 180.68 211.568 180.72 212.021 180.72C212.861 180.72 213.448 180.56 213.781 180.24C214.114 179.907 214.281 179.44 214.281 178.84C214.281 178.307 214.114 177.867 213.781 177.52C213.461 177.173 212.894 177 212.081 177C211.854 177 211.608 177.007 211.341 177.02C211.074 177.033 210.828 177.073 210.601 177.14V180.6ZM210.601 175.82C210.921 175.767 211.228 175.733 211.521 175.72C211.814 175.693 212.094 175.68 212.361 175.68C213.041 175.68 213.608 175.76 214.061 175.92C214.528 176.067 214.901 176.273 215.181 176.54C215.461 176.807 215.654 177.127 215.761 177.5C215.881 177.86 215.941 178.247 215.941 178.66C215.941 179.873 215.601 180.753 214.921 181.3C214.254 181.847 213.168 182.12 211.661 182.12C210.808 182.12 209.921 182.08 209.001 182V172H210.601V175.82ZM217.521 172H219.121V182H217.521V172ZM4.06 201.5H3.14V206H1.54V196H3.14V200.52L4 200.24L7.2 196H8.94L5.84 200.02L5 200.68L6.04 201.48L9.38 206H7.4L4.06 201.5ZM22.3141 197.4H19.1941V206H17.5941V197.4H14.4741V196H22.3141V197.4ZM30.8908 205.2C30.4908 205.52 29.9841 205.773 29.3708 205.96C28.7708 206.147 28.1308 206.24 27.4508 206.24C26.6908 206.24 26.0308 206.12 25.4708 205.88C24.9108 205.627 24.4508 205.273 24.0908 204.82C23.7308 204.353 23.4641 203.8 23.2908 203.16C23.1174 202.52 23.0308 201.8 23.0308 201C23.0308 199.293 23.4108 197.993 24.1708 197.1C24.9308 196.207 26.0174 195.76 27.4308 195.76C27.8841 195.76 28.3374 195.813 28.7908 195.92C29.2441 196.013 29.6508 196.2 30.0108 196.48C30.3708 196.76 30.6641 197.16 30.8908 197.68C31.1174 198.187 31.2308 198.86 31.2308 199.7C31.2308 200.14 31.1908 200.627 31.1108 201.16H24.6908C24.6908 201.747 24.7508 202.267 24.8708 202.72C24.9908 203.173 25.1774 203.56 25.4308 203.88C25.6841 204.187 26.0108 204.427 26.4108 204.6C26.8241 204.76 27.3241 204.84 27.9108 204.84C28.3641 204.84 28.8174 204.76 29.2708 204.6C29.7241 204.44 30.0641 204.253 30.2908 204.04L30.8908 205.2ZM27.4508 197.16C26.6641 197.16 26.0308 197.367 25.5508 197.78C25.0841 198.193 24.8041 198.9 24.7108 199.9H29.6708C29.6708 198.887 29.4774 198.18 29.0908 197.78C28.7041 197.367 28.1574 197.16 27.4508 197.16ZM38.6778 197.4H35.7778C35.7378 197.96 35.6978 198.567 35.6578 199.22C35.6178 199.86 35.5578 200.507 35.4778 201.16C35.3978 201.8 35.2911 202.42 35.1578 203.02C35.0245 203.607 34.8511 204.127 34.6378 204.58C34.4378 205.033 34.1845 205.4 33.8778 205.68C33.5845 205.947 33.2311 206.08 32.8178 206.08C32.5645 206.08 32.3445 206.067 32.1578 206.04C31.9711 206.013 31.8045 205.967 31.6578 205.9L31.8978 204.56C32.0578 204.613 32.2311 204.64 32.4178 204.64C32.6845 204.64 32.9245 204.527 33.1378 204.3C33.3511 204.073 33.5378 203.647 33.6978 203.02C33.8578 202.38 33.9911 201.5 34.0978 200.38C34.2045 199.26 34.2778 197.8 34.3178 196H40.2778V206H38.6778V197.4ZM50.6564 205.2C50.2564 205.52 49.7497 205.773 49.1364 205.96C48.5364 206.147 47.8964 206.24 47.2164 206.24C46.4564 206.24 45.7964 206.12 45.2364 205.88C44.6764 205.627 44.2164 205.273 43.8564 204.82C43.4964 204.353 43.2297 203.8 43.0564 203.16C42.8831 202.52 42.7964 201.8 42.7964 201C42.7964 199.293 43.1764 197.993 43.9364 197.1C44.6964 196.207 45.7831 195.76 47.1964 195.76C47.6497 195.76 48.1031 195.813 48.5564 195.92C49.0097 196.013 49.4164 196.2 49.7764 196.48C50.1364 196.76 50.4297 197.16 50.6564 197.68C50.8831 198.187 50.9964 198.86 50.9964 199.7C50.9964 200.14 50.9564 200.627 50.8764 201.16H44.4564C44.4564 201.747 44.5164 202.267 44.6364 202.72C44.7564 203.173 44.9431 203.56 45.1964 203.88C45.4497 204.187 45.7764 204.427 46.1764 204.6C46.5897 204.76 47.0897 204.84 47.6764 204.84C48.1297 204.84 48.5831 204.76 49.0364 204.6C49.4897 204.44 49.8297 204.253 50.0564 204.04L50.6564 205.2ZM47.2164 197.16C46.4297 197.16 45.7964 197.367 45.3164 197.78C44.8497 198.193 44.5697 198.9 44.4764 199.9H49.4364C49.4364 198.887 49.2431 198.18 48.8564 197.78C48.4697 197.367 47.9231 197.16 47.2164 197.16ZM53.5127 196.02C53.9793 195.993 54.466 195.96 54.9727 195.92C55.4927 195.88 56.1327 195.86 56.8927 195.86C58.2127 195.86 59.1593 196.067 59.7327 196.48C60.306 196.88 60.5927 197.493 60.5927 198.32C60.5927 198.787 60.4527 199.247 60.1727 199.7C59.906 200.14 59.4593 200.467 58.8327 200.68V200.76C59.6193 200.907 60.1727 201.18 60.4927 201.58C60.8127 201.98 60.9727 202.513 60.9727 203.18C60.9727 204.22 60.5993 204.973 59.8527 205.44C59.106 205.907 57.986 206.14 56.4927 206.14C55.9327 206.14 55.4127 206.12 54.9327 206.08C54.4527 206.053 53.9793 206.02 53.5127 205.98V196.02ZM55.1127 204.66C55.366 204.687 55.6127 204.707 55.8527 204.72C56.106 204.733 56.3993 204.74 56.7327 204.74C57.626 204.74 58.286 204.613 58.7127 204.36C59.1527 204.107 59.3727 203.673 59.3727 203.06C59.3727 202.58 59.186 202.193 58.8127 201.9C58.4527 201.593 57.806 201.44 56.8727 201.44H55.1127V204.66ZM57.0727 200.22C57.3127 200.22 57.546 200.18 57.7727 200.1C57.9993 200.02 58.1993 199.913 58.3727 199.78C58.5593 199.633 58.706 199.467 58.8127 199.28C58.9327 199.093 58.9927 198.893 58.9927 198.68C58.9927 198.147 58.8327 197.78 58.5127 197.58C58.1927 197.367 57.6327 197.26 56.8327 197.26C56.406 197.26 56.066 197.267 55.8127 197.28C55.5727 197.293 55.3393 197.307 55.1127 197.32V200.22H57.0727ZM69.7331 200.08L69.7931 198.84H69.7331L68.9131 200.12L64.4131 206H63.4931V196H65.0931V202.1L65.0331 203.28H65.1131L65.8931 202.04L70.3931 196H71.3331V206H69.7331V200.08ZM75.3711 201.54V200.24H76.7711C77.0111 200.24 77.2444 200.2 77.4711 200.12C77.7111 200.04 77.9244 199.933 78.1111 199.8C78.2978 199.653 78.4444 199.487 78.5511 199.3C78.6711 199.1 78.7311 198.893 78.7311 198.68C78.7311 198.16 78.5511 197.793 78.1911 197.58C77.8311 197.367 77.2911 197.26 76.5711 197.26C76.0511 197.26 75.5711 197.34 75.1311 197.5C74.7044 197.66 74.3711 197.813 74.1311 197.96L73.6711 196.72C74.0711 196.493 74.5378 196.293 75.0711 196.12C75.6178 195.947 76.2644 195.86 77.0111 195.86C79.2244 195.86 80.3311 196.68 80.3311 198.32C80.3311 198.787 80.1778 199.247 79.8711 199.7C79.5778 200.14 79.1511 200.453 78.5911 200.64V200.72C79.3778 200.867 79.9244 201.147 80.2311 201.56C80.5511 201.973 80.7111 202.52 80.7111 203.2C80.7111 203.627 80.6244 204.02 80.4511 204.38C80.2778 204.74 80.0178 205.053 79.6711 205.32C79.3244 205.587 78.8844 205.8 78.3511 205.96C77.8311 206.107 77.2244 206.18 76.5311 206.18C75.8511 206.18 75.2844 206.12 74.8311 206C74.3911 205.88 73.9911 205.733 73.6311 205.56L74.0911 204.24C74.3978 204.413 74.7644 204.547 75.1911 204.64C75.6311 204.733 76.1044 204.78 76.6111 204.78C77.4244 204.78 78.0444 204.64 78.4711 204.36C78.8978 204.08 79.1111 203.653 79.1111 203.08C79.1111 202.6 78.9111 202.227 78.5111 201.96C78.1111 201.68 77.4511 201.54 76.5311 201.54H75.3711ZM82.6792 201C82.6792 199.307 83.0526 198.013 83.7992 197.12C84.5592 196.213 85.6459 195.76 87.0592 195.76C87.8059 195.76 88.4526 195.887 88.9992 196.14C89.5592 196.38 90.0192 196.733 90.3792 197.2C90.7392 197.653 91.0059 198.207 91.1792 198.86C91.3526 199.5 91.4392 200.213 91.4392 201C91.4392 202.693 91.0592 203.993 90.2992 204.9C89.5526 205.793 88.4726 206.24 87.0592 206.24C86.3126 206.24 85.6592 206.12 85.0992 205.88C84.5526 205.627 84.0992 205.273 83.7392 204.82C83.3792 204.353 83.1126 203.8 82.9392 203.16C82.7659 202.507 82.6792 201.787 82.6792 201ZM84.3392 201C84.3392 201.507 84.3859 201.993 84.4792 202.46C84.5859 202.927 84.7459 203.333 84.9592 203.68C85.1726 204.027 85.4526 204.307 85.7992 204.52C86.1459 204.733 86.5659 204.84 87.0592 204.84C88.8726 204.853 89.7792 203.573 89.7792 201C89.7792 200.48 89.7259 199.987 89.6192 199.52C89.5259 199.053 89.3726 198.647 89.1592 198.3C88.9459 197.953 88.6659 197.68 88.3192 197.48C87.9726 197.267 87.5526 197.16 87.0592 197.16C85.2459 197.147 84.3392 198.427 84.3392 201ZM93.9619 196H95.0619L95.3619 197.2H95.4419C95.7485 196.733 96.1419 196.38 96.6219 196.14C97.1152 195.887 97.6752 195.76 98.3019 195.76C99.6352 195.76 100.629 196.153 101.282 196.94C101.935 197.727 102.262 199.013 102.262 200.8C102.262 201.64 102.149 202.4 101.922 203.08C101.709 203.747 101.402 204.313 101.002 204.78C100.602 205.247 100.115 205.607 99.5419 205.86C98.9819 206.113 98.3552 206.24 97.6619 206.24C97.1685 206.24 96.7752 206.207 96.4819 206.14C96.2019 206.087 95.8952 205.987 95.5619 205.84V210H93.9619V196ZM98.0019 197.16C97.3219 197.16 96.7819 197.34 96.3819 197.7C95.9952 198.047 95.7219 198.58 95.5619 199.3V204.26C95.8019 204.447 96.0752 204.593 96.3819 204.7C96.6885 204.793 97.0952 204.84 97.6019 204.84C98.5219 204.84 99.2485 204.5 99.7819 203.82C100.329 203.127 100.602 202.113 100.602 200.78C100.602 200.233 100.555 199.74 100.462 199.3C100.369 198.847 100.215 198.467 100.002 198.16C99.8019 197.84 99.5352 197.593 99.2019 197.42C98.8819 197.247 98.4819 197.16 98.0019 197.16ZM107.488 202.48L108.048 204.4H108.148L108.588 202.46L110.528 196H112.148L109.188 204.98C108.961 205.633 108.734 206.267 108.508 206.88C108.294 207.493 108.054 208.04 107.788 208.52C107.521 209 107.221 209.38 106.888 209.66C106.554 209.953 106.168 210.1 105.728 210.1C105.248 210.1 104.854 210.033 104.548 209.9L104.828 208.52C105.001 208.587 105.168 208.62 105.328 208.62C105.701 208.62 106.061 208.42 106.408 208.02C106.754 207.633 107.041 206.96 107.268 206L103.248 196H105.088L107.488 202.48ZM117.914 201C117.914 199.307 118.287 198.013 119.034 197.12C119.794 196.213 120.88 195.76 122.294 195.76C123.04 195.76 123.687 195.887 124.234 196.14C124.794 196.38 125.254 196.733 125.614 197.2C125.974 197.653 126.24 198.207 126.414 198.86C126.587 199.5 126.674 200.213 126.674 201C126.674 202.693 126.294 203.993 125.534 204.9C124.787 205.793 123.707 206.24 122.294 206.24C121.547 206.24 120.894 206.12 120.334 205.88C119.787 205.627 119.334 205.273 118.974 204.82C118.614 204.353 118.347 203.8 118.174 203.16C118 202.507 117.914 201.787 117.914 201ZM119.574 201C119.574 201.507 119.62 201.993 119.714 202.46C119.82 202.927 119.98 203.333 120.194 203.68C120.407 204.027 120.687 204.307 121.034 204.52C121.38 204.733 121.8 204.84 122.294 204.84C124.107 204.853 125.014 203.573 125.014 201C125.014 200.48 124.96 199.987 124.854 199.52C124.76 199.053 124.607 198.647 124.394 198.3C124.18 197.953 123.9 197.68 123.554 197.48C123.207 197.267 122.787 197.16 122.294 197.16C120.48 197.147 119.574 198.427 119.574 201ZM137.919 208.54H136.839L136.539 206H129.019L128.719 208.54H127.639V204.6H128.819C128.926 204.453 129.066 204.193 129.239 203.82C129.412 203.433 129.579 202.9 129.739 202.22C129.912 201.527 130.059 200.673 130.179 199.66C130.312 198.633 130.392 197.413 130.419 196H136.459V204.6H137.919V208.54ZM134.859 204.6V197.4H131.859C131.832 197.96 131.786 198.573 131.719 199.24C131.652 199.893 131.559 200.553 131.439 201.22C131.332 201.873 131.192 202.493 131.019 203.08C130.846 203.667 130.646 204.173 130.419 204.6H134.859ZM146.019 201.58H141.499V206H139.899V196H141.499V200.18H146.019V196H147.619V206H146.019V201.58ZM156.94 200.08L157 198.84H156.94L156.12 200.12L151.62 206H150.7V196H152.3V202.1L152.24 203.28H152.32L153.1 202.04L157.6 196H158.54V206H156.94V200.08ZM169.878 200.06L169.998 198.16H169.898L169.178 199.7L166.758 203.62H166.198L163.678 199.7L163.018 198.16H162.938L163.098 200.04V206H161.618V196H163.198L165.998 200.48L166.578 201.64H166.618L167.218 200.44L169.838 196H171.438V206H169.878V200.06ZM185.961 201.58H181.441V206H179.841V196H181.441V200.18H185.961V196H187.561V206H185.961V201.58ZM190.482 196.74C190.988 196.433 191.575 196.207 192.242 196.06C192.922 195.913 193.628 195.84 194.362 195.84C195.055 195.84 195.608 195.933 196.022 196.12C196.448 196.307 196.768 196.553 196.982 196.86C197.208 197.153 197.355 197.48 197.422 197.84C197.502 198.2 197.542 198.56 197.542 198.92C197.542 199.72 197.522 200.5 197.482 201.26C197.442 202.02 197.422 202.74 197.422 203.42C197.422 203.913 197.442 204.38 197.482 204.82C197.522 205.26 197.595 205.667 197.702 206.04H196.522L196.102 204.64H196.002C195.882 204.827 195.728 205.013 195.542 205.2C195.368 205.373 195.155 205.533 194.902 205.68C194.648 205.813 194.355 205.927 194.022 206.02C193.688 206.113 193.308 206.16 192.882 206.16C192.455 206.16 192.055 206.093 191.682 205.96C191.322 205.827 191.008 205.64 190.742 205.4C190.475 205.147 190.262 204.847 190.102 204.5C189.955 204.153 189.882 203.76 189.882 203.32C189.882 202.733 190.002 202.247 190.242 201.86C190.482 201.46 190.815 201.147 191.242 200.92C191.682 200.68 192.202 200.513 192.802 200.42C193.415 200.313 194.088 200.26 194.822 200.26C195.008 200.26 195.188 200.26 195.362 200.26C195.548 200.26 195.735 200.273 195.922 200.3C195.962 199.9 195.982 199.54 195.982 199.22C195.982 198.487 195.835 197.973 195.542 197.68C195.248 197.387 194.715 197.24 193.942 197.24C193.715 197.24 193.468 197.26 193.202 197.3C192.948 197.327 192.682 197.373 192.402 197.44C192.135 197.493 191.875 197.567 191.622 197.66C191.382 197.74 191.168 197.833 190.982 197.94L190.482 196.74ZM193.322 204.76C193.695 204.76 194.028 204.713 194.322 204.62C194.615 204.513 194.868 204.387 195.082 204.24C195.295 204.08 195.468 203.907 195.602 203.72C195.748 203.533 195.855 203.353 195.922 203.18V201.52C195.735 201.507 195.542 201.5 195.342 201.5C195.155 201.487 194.968 201.48 194.782 201.48C194.368 201.48 193.962 201.507 193.562 201.56C193.175 201.6 192.828 201.687 192.522 201.82C192.228 201.94 191.988 202.113 191.802 202.34C191.628 202.553 191.542 202.827 191.542 203.16C191.542 203.627 191.708 204.013 192.042 204.32C192.375 204.613 192.802 204.76 193.322 204.76ZM203.823 201.58L200.883 206H199.043L202.203 201.42L202.883 200.82L201.863 200.06L199.263 196H200.963L203.723 200.32H204.763V196H206.323V200.52L207.263 200.24L210.043 196H211.723L209.003 200.06L208.223 200.7L209.243 201.5L212.203 206H210.303L207.363 201.5H206.323V206H204.763V201.3L203.823 201.58ZM213.587 196.74C214.094 196.433 214.68 196.207 215.347 196.06C216.027 195.913 216.734 195.84 217.467 195.84C218.16 195.84 218.714 195.933 219.127 196.12C219.554 196.307 219.874 196.553 220.087 196.86C220.314 197.153 220.46 197.48 220.527 197.84C220.607 198.2 220.647 198.56 220.647 198.92C220.647 199.72 220.627 200.5 220.587 201.26C220.547 202.02 220.527 202.74 220.527 203.42C220.527 203.913 220.547 204.38 220.587 204.82C220.627 205.26 220.7 205.667 220.807 206.04H219.627L219.207 204.64H219.107C218.987 204.827 218.834 205.013 218.647 205.2C218.474 205.373 218.26 205.533 218.007 205.68C217.754 205.813 217.46 205.927 217.127 206.02C216.794 206.113 216.414 206.16 215.987 206.16C215.56 206.16 215.16 206.093 214.787 205.96C214.427 205.827 214.114 205.64 213.847 205.4C213.58 205.147 213.367 204.847 213.207 204.5C213.06 204.153 212.987 203.76 212.987 203.32C212.987 202.733 213.107 202.247 213.347 201.86C213.587 201.46 213.92 201.147 214.347 200.92C214.787 200.68 215.307 200.513 215.907 200.42C216.52 200.313 217.194 200.26 217.927 200.26C218.114 200.26 218.294 200.26 218.467 200.26C218.654 200.26 218.84 200.273 219.027 200.3C219.067 199.9 219.087 199.54 219.087 199.22C219.087 198.487 218.94 197.973 218.647 197.68C218.354 197.387 217.82 197.24 217.047 197.24C216.82 197.24 216.574 197.26 216.307 197.3C216.054 197.327 215.787 197.373 215.507 197.44C215.24 197.493 214.98 197.567 214.727 197.66C214.487 197.74 214.274 197.833 214.087 197.94L213.587 196.74ZM216.427 204.76C216.8 204.76 217.134 204.713 217.427 204.62C217.72 204.513 217.974 204.387 218.187 204.24C218.4 204.08 218.574 203.907 218.707 203.72C218.854 203.533 218.96 203.353 219.027 203.18V201.52C218.84 201.507 218.647 201.5 218.447 201.5C218.26 201.487 218.074 201.48 217.887 201.48C217.474 201.48 217.067 201.507 216.667 201.56C216.28 201.6 215.934 201.687 215.627 201.82C215.334 201.94 215.094 202.113 214.907 202.34C214.734 202.553 214.647 202.827 214.647 203.16C214.647 203.627 214.814 204.013 215.147 204.32C215.48 204.613 215.907 204.76 216.427 204.76ZM230.029 197.4H226.909V206H225.309V197.4H222.189V196H230.029V197.4ZM237.858 200.08L237.918 198.84H237.858L237.038 200.12L232.538 206H231.618V196H233.218V202.1L233.158 203.28H233.238L234.018 202.04L238.518 196H239.458V206H237.858V200.08ZM249.836 205.2C249.436 205.52 248.929 205.773 248.316 205.96C247.716 206.147 247.076 206.24 246.396 206.24C245.636 206.24 244.976 206.12 244.416 205.88C243.856 205.627 243.396 205.273 243.036 204.82C242.676 204.353 242.409 203.8 242.236 203.16C242.063 202.52 241.976 201.8 241.976 201C241.976 199.293 242.356 197.993 243.116 197.1C243.876 196.207 244.963 195.76 246.376 195.76C246.829 195.76 247.283 195.813 247.736 195.92C248.189 196.013 248.596 196.2 248.956 196.48C249.316 196.76 249.609 197.16 249.836 197.68C250.063 198.187 250.176 198.86 250.176 199.7C250.176 200.14 250.136 200.627 250.056 201.16H243.636C243.636 201.747 243.696 202.267 243.816 202.72C243.936 203.173 244.123 203.56 244.376 203.88C244.629 204.187 244.956 204.427 245.356 204.6C245.769 204.76 246.269 204.84 246.856 204.84C247.309 204.84 247.763 204.76 248.216 204.6C248.669 204.44 249.009 204.253 249.236 204.04L249.836 205.2ZM246.396 197.16C245.609 197.16 244.976 197.367 244.496 197.78C244.029 198.193 243.749 198.9 243.656 199.9H248.616C248.616 198.887 248.423 198.18 248.036 197.78C247.649 197.367 247.103 197.16 246.396 197.16ZM260.952 200.06L261.072 198.16H260.972L260.252 199.7L257.832 203.62H257.272L254.752 199.7L254.092 198.16H254.012L254.172 200.04V206H252.692V196H254.272L257.072 200.48L257.652 201.64H257.692L258.292 200.44L260.912 196H262.512V206H260.952V200.06Z" fill="white"/>
<defs>
<filter id="filter0_f_70_1454" x="-84.0859" y="17.4359" width="838.352" height="838.351" filterUnits="userSpaceOnUse" color-interpolation-filters="sRGB">
<feFlood flood-opacity="0" result="BackgroundImageFix"/>
<feBlend mode="normal" in="SourceGraphic" in2="BackgroundImageFix" result="shape"/>
<feGaussianBlur stdDeviation="100" result="effect1_foregroundBlur_70_1454"/>
</filter>
</defs>
</svg>
